<svg width="43" height="42" viewBox="0 0 43 42" fill="none" xmlns="http://www.w3.org/2000/svg">
<g clip-path="url(#clip0)">
<path d="M21.517 18.9C21.4148 18.9 21.3133 18.8776 21.2188 18.8335L9.31879 13.2335C9.07379 13.118 8.91699 12.8709 8.91699 12.6C8.91699 12.3291 9.07379 12.082 9.31879 11.9665L21.2188 6.36654C21.4078 6.27764 21.6262 6.27764 21.8152 6.36654L33.7152 11.9665C33.9602 12.082 34.117 12.3291 34.117 12.6C34.117 12.8709 33.9602 13.118 33.7152 13.2335L21.8152 18.8335C21.7207 18.8776 21.6192 18.9 21.517 18.9ZM11.2613 12.6L21.517 17.4265L31.7727 12.6L21.517 7.77354L11.2613 12.6Z" fill="#8DC640"/>
<path d="M21.767 26.7027C21.6599 26.7027 21.5521 26.6782 21.4541 26.6292L13.0541 22.4292C12.8168 22.3102 12.667 22.068 12.667 21.8027V16.4498C12.667 16.2104 12.7895 15.9871 12.9918 15.859C13.1941 15.7302 13.4482 15.7155 13.6645 15.8163L21.767 19.6292L29.8688 15.8163C30.0858 15.7148 30.3399 15.7302 30.5415 15.859C30.7445 15.9871 30.867 16.2104 30.867 16.4498V21.8027C30.867 22.068 30.7172 22.3102 30.4799 22.4292L22.0799 26.6292C21.9819 26.6782 21.8741 26.7027 21.767 26.7027ZM14.067 21.3701L21.767 25.2201L29.467 21.3701V17.553L22.0652 21.0362C21.8762 21.1251 21.6578 21.1251 21.4688 21.0362L14.067 17.553V21.3701Z" fill="#8DC640"/>
<path d="M33.5668 13.2999H21.6668C21.2804 13.2999 20.9668 12.9863 20.9668 12.5999C20.9668 12.2135 21.2804 11.8999 21.6668 11.8999H33.5668C33.9532 11.8999 34.2668 12.2135 34.2668 12.5999C34.2668 12.9863 33.9532 13.2999 33.5668 13.2999Z" fill="#8DC640"/>
<path d="M21.6668 14.7C21.2804 14.7 20.9668 14.3864 20.9668 14V11.2C20.9668 10.8136 21.2804 10.5 21.6668 10.5C22.0532 10.5 22.3668 10.8136 22.3668 11.2V14C22.3668 14.3864 22.0532 14.7 21.6668 14.7Z" fill="#8DC640"/>
<path d="M21.6668 21C21.2804 21 20.9668 20.6864 20.9668 20.3V18.2C20.9668 17.8136 21.2804 17.5 21.6668 17.5C22.0532 17.5 22.3668 17.8136 22.3668 18.2V20.3C22.3668 20.6864 22.0532 21 21.6668 21Z" fill="#8DC640"/>
<path d="M41.967 27.3001H1.36699C0.980592 27.3001 0.666992 26.9865 0.666992 26.6001V3.50077C0.666992 1.95657 1.92349 0.700073 3.46769 0.700073H39.8663C41.4105 0.700073 42.667 1.95657 42.667 3.50077V26.6001C42.667 26.9865 42.3534 27.3001 41.967 27.3001ZM2.06699 25.9001H41.267V3.50077C41.267 2.72797 40.6391 2.10007 39.8663 2.10007H3.46769C2.69489 2.10007 2.06699 2.72797 2.06699 3.50077V25.9001Z" fill="#2D3691"/>
<path d="M39.8663 32.9H3.46769C1.92349 32.9 0.666992 31.6435 0.666992 30.0993V26.6C0.666992 26.2136 0.980592 25.9 1.36699 25.9H41.967C42.3534 25.9 42.667 26.2136 42.667 26.6V30.0993C42.667 31.6435 41.4105 32.9 39.8663 32.9ZM2.06699 27.3V30.0993C2.06699 30.8721 2.69489 31.5 3.46769 31.5H39.8663C40.6391 31.5 41.267 30.8721 41.267 30.0993V27.3H2.06699Z" fill="#2D3691"/>
<path d="M23.7672 30.0999H19.5672C19.1808 30.0999 18.8672 29.7863 18.8672 29.3999C18.8672 29.0135 19.1808 28.7 19.5672 28.7H23.7672C24.1536 28.7 24.4672 29.0135 24.4672 29.3999C24.4672 29.7863 24.1536 30.0999 23.7672 30.0999Z" fill="#2D3691"/>
<path d="M39.1668 27.3H4.1668C3.7804 27.3 3.4668 26.9864 3.4668 26.6V4.2C3.4668 3.8136 3.7804 3.5 4.1668 3.5H39.1668C39.5532 3.5 39.8668 3.8136 39.8668 4.2V26.6C39.8668 26.9864 39.5532 27.3 39.1668 27.3ZM4.8668 25.9H38.4668V4.9H4.8668V25.9Z" fill="#2D3691"/>
<path d="M30.7668 41.3H12.5668C11.409 41.3 10.4668 40.3578 10.4668 39.2C10.4668 38.0422 11.409 37.1 12.5668 37.1H30.7668C31.9246 37.1 32.8668 38.0422 32.8668 39.2C32.8668 40.3578 31.9246 41.3 30.7668 41.3ZM12.5668 38.5C12.1811 38.5 11.8668 38.8143 11.8668 39.2C11.8668 39.5857 12.1811 39.9 12.5668 39.9H30.7668C31.1525 39.9 31.4668 39.5857 31.4668 39.2C31.4668 38.8143 31.1525 38.5 30.7668 38.5H12.5668Z" fill="#2D3691"/>
<path d="M29.3671 38.5H13.9671C13.5807 38.5 13.2671 38.1864 13.2671 37.8C13.2671 37.4136 13.5807 37.1 13.9671 37.1C16.2897 37.1 17.4671 35.4515 17.4671 32.2C17.4671 31.8136 17.7807 31.5 18.1671 31.5H25.1671C25.5535 31.5 25.8671 31.8136 25.8671 32.2C25.8671 35.4515 27.0445 37.1 29.3671 37.1C29.7535 37.1 30.0671 37.4136 30.0671 37.8C30.0671 38.1864 29.7535 38.5 29.3671 38.5ZM17.3768 37.1H25.9581C25.0957 36.1452 24.5882 34.7235 24.4867 32.9H18.8482C18.746 34.7235 18.2392 36.1452 17.3768 37.1Z" fill="#2D3691"/>
</g>
<defs>
<clipPath id="clip0">
<rect width="42" height="42" fill="white" transform="translate(0.666992)"/>
</clipPath>
</defs>
</svg>
