<svg width="43" height="42" viewBox="0 0 43 42" fill="none" xmlns="http://www.w3.org/2000/svg">
<g clip-path="url(#clip0)">
<path d="M39.1071 31.4088C40.0226 30.5736 40.7279 29.5342 41.1659 28.3751C41.6039 27.2159 41.762 25.9697 41.6276 24.7379C41.4931 23.5061 41.0698 22.3234 40.3921 21.286C39.7144 20.2487 38.8014 19.3859 37.7273 18.7679C36.6533 18.1499 35.4486 17.7941 34.2111 17.7295C32.9737 17.6649 31.7384 17.8933 30.6059 18.3961C29.4733 18.8989 28.4755 19.6619 27.6934 20.6231C26.9113 21.5842 26.3672 22.7164 26.1052 23.9275L20.021 20.6104V18.0332C20.8283 17.4939 21.4902 16.7639 21.9481 15.9078C22.406 15.0517 22.6457 14.0959 22.646 13.125V9.22148C23.183 8.73978 23.6469 8.18227 24.0228 7.56658C24.5635 6.69159 24.9771 5.74424 25.2514 4.75291C25.2807 4.63926 25.2789 4.51981 25.2461 4.40711C25.2133 4.29441 25.1507 4.19263 25.065 4.11245C24.9793 4.03227 24.8736 3.97665 24.7589 3.95144C24.6443 3.92624 24.525 3.93236 24.4135 3.96918C24.3474 3.98953 22.7765 4.45243 21.1413 2.81722C19.1003 0.776283 16.475 1.21408 15.9969 1.31564C15.6761 1.34013 15.3598 1.40555 15.0557 1.5103C14.4322 1.72448 13.8552 2.05522 13.3553 2.48491C12.562 2.19657 11.2901 2.19961 10.3027 2.83034C9.14728 3.56863 8.08268 5.29128 9.52101 9.2999V13.125C9.52135 14.0959 9.76107 15.0517 10.2189 15.9078C10.6768 16.7639 11.3387 17.4939 12.146 18.0332V20.6063L2.79519 25.5979C2.25106 25.8697 1.79369 26.2881 1.47468 26.8059C1.15567 27.3237 0.987714 27.9204 0.989765 28.5286V36.75C0.989765 36.9241 1.05891 37.091 1.18198 37.2141C1.30505 37.3371 1.47197 37.4063 1.64601 37.4063H26.3555L25.9655 38.4981C25.9265 38.6074 25.9171 38.7252 25.9385 38.8393C25.9598 38.9534 26.011 39.0599 26.0869 39.1477C26.1628 39.2356 26.2606 39.3017 26.3705 39.3394C26.4803 39.3771 26.5981 39.385 26.712 39.3623L29.6487 38.7749L31.3691 40.4953C31.4503 40.5766 31.5515 40.6351 31.6625 40.665C31.7735 40.6949 31.8904 40.695 32.0015 40.6655C32.1126 40.636 32.214 40.5779 32.2956 40.4969C32.3771 40.4158 32.436 40.3148 32.4662 40.2039L33.8023 35.3067L35.1379 40.2039C35.1681 40.3148 35.227 40.4158 35.3085 40.4969C35.3901 40.5779 35.4915 40.636 35.6026 40.6655C35.7137 40.695 35.8306 40.6949 35.9416 40.665C36.0526 40.6351 36.1538 40.5766 36.2351 40.4953L37.9554 38.7749L40.8921 39.3623C41.006 39.385 41.1238 39.3771 41.2337 39.3394C41.3435 39.3017 41.4413 39.2356 41.5172 39.1477C41.5931 39.0599 41.6443 38.9534 41.6657 38.8393C41.687 38.7252 41.6777 38.6074 41.6386 38.4981L39.1071 31.4088ZM33.8023 19.0313C35.1002 19.0313 36.369 19.4162 37.4482 20.1372C38.5274 20.8583 39.3685 21.8833 39.8652 23.0824C40.3619 24.2815 40.4919 25.601 40.2387 26.874C39.9854 28.147 39.3604 29.3164 38.4426 30.2342C37.5249 31.1519 36.3555 31.777 35.0825 32.0302C33.8095 32.2834 32.49 32.1534 31.2909 31.6567C30.0918 31.16 29.0668 30.3189 28.3457 29.2397C27.6246 28.1605 27.2398 26.8917 27.2398 25.5938C27.2417 23.8539 27.9338 22.1858 29.1641 20.9556C30.3943 19.7253 32.0624 19.0332 33.8023 19.0313ZM18.0523 36.0938H14.1148V30.3862L15.1222 28.875H17.0448L18.0523 30.3862V36.0938ZM12.6822 21.808L15.1114 24.2371L12.3273 26.5571L10.3308 23.0632L12.6822 21.808ZM16.9905 27.5625H15.1766L14.5868 26.3828L16.0835 25.1355L17.5803 26.3828L16.9905 27.5625ZM17.0557 24.2371L19.4816 21.8112L21.8223 23.0875L19.8397 26.5575L17.0557 24.2371ZM10.8854 4.02349C11.6817 3.40825 12.805 3.62916 13.0093 3.75968C13.1336 3.87637 13.2984 3.94013 13.4688 3.93745C13.6393 3.93477 13.802 3.86586 13.9226 3.74532C15.006 2.66185 16.047 2.626 16.0835 2.62502C16.1363 2.62566 16.189 2.61929 16.2401 2.60607C16.3332 2.58359 18.5426 2.07467 20.2132 3.74532C21.4865 5.01853 22.777 5.32779 23.6679 5.35313C23.4575 5.89061 23.1982 6.40764 22.8933 6.8977C21.9351 8.417 20.748 9.18752 19.3648 9.18752C15.8633 9.18752 14.0947 6.34571 14.0203 6.2234C13.9721 6.14336 13.9072 6.07456 13.8302 6.0216C13.7531 5.96865 13.6657 5.93277 13.5737 5.91636C13.4816 5.89994 13.3871 5.90338 13.2966 5.92644C13.206 5.9495 13.1213 5.99165 13.0484 6.05007L10.5033 8.08633C9.91862 6.09716 10.0474 4.67055 10.8854 4.02349ZM10.8335 13.125V9.50293L13.3297 7.50588C14.1541 8.53422 16.1505 10.5 19.3648 10.5C20.0437 10.5023 20.7151 10.3585 21.3335 10.0783V13.125C21.3321 14.3429 20.8477 15.5106 19.9865 16.3718C19.1253 17.2329 17.9577 17.7174 16.7398 17.7188H15.4273C14.2094 17.7174 13.0417 17.2329 12.1805 16.3718C11.3193 15.5106 10.8349 14.3429 10.8335 13.125ZM15.4273 19.0313H16.7398C17.4105 19.0315 18.0764 18.917 18.7085 18.6926V20.7282L16.0835 23.3532L13.4585 20.7282V18.6926C14.0906 18.917 14.7565 19.0315 15.4273 19.0313ZM2.30226 28.5286C2.30102 28.1627 2.40232 27.8038 2.59468 27.4926C2.78704 27.1813 3.06276 26.9302 3.39057 26.7677C3.39582 26.7651 3.40099 26.7624 3.40608 26.7595L9.17287 23.6814L11.5764 27.8879C11.624 27.9712 11.6892 28.043 11.7675 28.0984C11.8458 28.1537 11.9353 28.1912 12.0297 28.2082C12.1241 28.2252 12.221 28.2214 12.3137 28.1969C12.4065 28.1724 12.4927 28.1279 12.5663 28.0665L13.5507 27.2462L14.0135 28.1718L12.9123 29.8236C12.8405 29.9314 12.8022 30.058 12.8023 30.1875V36.0938H7.55226V32.8125C7.55226 32.6385 7.48312 32.4715 7.36005 32.3485C7.23698 32.2254 7.07006 32.1563 6.89601 32.1563C6.72197 32.1563 6.55505 32.2254 6.43198 32.3485C6.30891 32.4715 6.23976 32.6385 6.23976 32.8125V36.0938H2.30226V28.5286ZM25.9273 36.0938V32.8125C25.9273 32.6385 25.8581 32.4715 25.7351 32.3485C25.612 32.2254 25.4451 32.1563 25.271 32.1563C25.097 32.1563 24.93 32.2254 24.807 32.3485C24.6839 32.4715 24.6148 32.6385 24.6148 32.8125V36.0938H19.3648V30.1875C19.3648 30.0579 19.3264 29.9313 19.2545 29.8235L18.1532 28.1716L18.6161 27.246L19.6004 28.0664C19.6741 28.1277 19.7603 28.1722 19.853 28.1967C19.9458 28.2212 20.0427 28.2251 20.1371 28.2081C20.2315 28.191 20.3209 28.1535 20.3993 28.0982C20.4776 28.0429 20.5428 27.971 20.5904 27.8878L22.9745 23.7157L25.9318 25.3282C25.9289 25.4163 25.9269 25.5047 25.9269 25.5934C25.9264 26.6883 26.1548 27.7711 26.5974 28.7725C27.04 29.7739 27.687 30.6718 28.497 31.4085L26.8242 36.0938H25.9273ZM31.4979 38.768L30.3288 37.5989C30.2524 37.5225 30.1583 37.4661 30.0549 37.4348C29.9515 37.4035 29.842 37.3982 29.7361 37.4194L27.5913 37.8483L29.5921 32.2463C30.6077 32.8923 31.7586 33.2951 32.9554 33.4236L31.4979 38.768ZM37.8685 37.4194C37.7625 37.3982 37.653 37.4035 37.5496 37.4348C37.4462 37.4661 37.3521 37.5225 37.2757 37.5989L36.1066 38.768L34.649 33.4236C35.8457 33.2951 36.9967 32.8923 38.0123 32.2463L40.013 37.8483L37.8685 37.4194Z" fill="#2D3691"/>
<path d="M33.8022 30.8438C34.8406 30.8438 35.8556 30.5358 36.719 29.959C37.5823 29.3821 38.2553 28.5622 38.6526 27.6028C39.05 26.6435 39.1539 25.5879 38.9514 24.5695C38.7488 23.5511 38.2488 22.6157 37.5146 21.8814C36.7803 21.1472 35.8449 20.6472 34.8265 20.4446C33.8081 20.2421 32.7525 20.346 31.7932 20.7434C30.8338 21.1407 30.0139 21.8137 29.437 22.677C28.8602 23.5404 28.5522 24.5554 28.5522 25.5938C28.5538 26.9857 29.1074 28.3201 30.0917 29.3043C31.0759 30.2886 32.4103 30.8422 33.8022 30.8438ZM33.8022 21.6563C34.581 21.6563 35.3423 21.8872 35.9898 22.3198C36.6373 22.7525 37.142 23.3675 37.44 24.0869C37.738 24.8064 37.816 25.5981 37.6641 26.3619C37.5122 27.1257 37.1371 27.8273 36.5865 28.378C36.0358 28.9287 35.3342 29.3037 34.5704 29.4556C33.8066 29.6075 33.0149 29.5295 32.2954 29.2315C31.5759 28.9335 30.961 28.4288 30.5283 27.7813C30.0957 27.1338 29.8647 26.3725 29.8647 25.5938C29.8659 24.5498 30.2812 23.549 31.0193 22.8108C31.7575 22.0727 32.7583 21.6574 33.8022 21.6563Z" fill="#8DC640"/>
<path d="M32.9538 24.7453L33.146 24.553V26.9062C32.972 26.9062 32.805 26.9754 32.682 27.0985C32.5589 27.2215 32.4898 27.3885 32.4898 27.5625C32.4898 27.7365 32.5589 27.9035 32.682 28.0265C32.805 28.1496 32.972 28.2188 33.146 28.2188H34.4585C34.6326 28.2188 34.7995 28.1496 34.9226 28.0265C35.0456 27.9035 35.1148 27.7365 35.1148 27.5625C35.1148 27.3885 35.0456 27.2215 34.9226 27.0985C34.7995 26.9754 34.6326 26.9062 34.4585 26.9062V23.625C34.4585 23.451 34.3894 23.284 34.2663 23.161C34.1432 23.0379 33.9763 22.9688 33.8023 22.9688H33.146C33.0598 22.9687 32.9745 22.9857 32.8949 23.0187C32.8153 23.0517 32.7429 23.1 32.682 23.1609L32.0257 23.8172C31.9648 23.8781 31.9164 23.9505 31.8835 24.0301C31.8505 24.1097 31.8335 24.1951 31.8335 24.2812C31.8335 24.3674 31.8505 24.4528 31.8835 24.5324C31.9164 24.612 31.9648 24.6844 32.0257 24.7453C32.0867 24.8062 32.159 24.8546 32.2386 24.8876C32.3182 24.9205 32.4036 24.9375 32.4898 24.9375C32.5759 24.9375 32.6613 24.9205 32.7409 24.8876C32.8205 24.8546 32.8929 24.8062 32.9538 24.7453Z" fill="#8DC640"/>
</g>
<defs>
<clipPath id="clip0">
<rect width="42" height="42" fill="white" transform="translate(0.333496)"/>
</clipPath>
</defs>
</svg>
