<svg width="42" height="42" viewBox="0 0 42 42" fill="none" xmlns="http://www.w3.org/2000/svg">
<path d="M5.25 32.8125H3.28125C3.1072 32.8125 2.94028 32.8816 2.81721 33.0047C2.69414 33.1278 2.625 33.2947 2.625 33.4688C2.625 33.6428 2.69414 33.8097 2.81721 33.9328C2.94028 34.0559 3.1072 34.125 3.28125 34.125H5.25C5.42405 34.125 5.59097 34.0559 5.71404 33.9328C5.83711 33.8097 5.90625 33.6428 5.90625 33.4688C5.90625 33.2947 5.83711 33.1278 5.71404 33.0047C5.59097 32.8816 5.42405 32.8125 5.25 32.8125Z" fill="#8DC640"/>
<path d="M7.875 32.8125H7.21875C7.0447 32.8125 6.87778 32.8816 6.75471 33.0047C6.63164 33.1278 6.5625 33.2947 6.5625 33.4688C6.5625 33.6428 6.63164 33.8097 6.75471 33.9328C6.87778 34.0559 7.0447 34.125 7.21875 34.125H7.875C8.04905 34.125 8.21597 34.0559 8.33904 33.9328C8.46211 33.8097 8.53125 33.6428 8.53125 33.4688C8.53125 33.2947 8.46211 33.1278 8.33904 33.0047C8.21597 32.8816 8.04905 32.8125 7.875 32.8125Z" fill="#8DC640"/>
<path d="M38.7188 13.7812H37.4062V8.53125C37.4053 7.83534 37.1285 7.16819 36.6364 6.6761C36.1443 6.18402 35.4772 5.90716 34.7812 5.90625H7.21875C6.5228 5.90703 5.85557 6.18384 5.36346 6.67596C4.87134 7.16807 4.59453 7.8353 4.59375 8.53125V20.3438H3.28125C2.5853 20.3445 1.91807 20.6213 1.42596 21.1135C0.933844 21.6056 0.657032 22.2728 0.65625 22.9688V33.4688C0.657032 34.1647 0.933844 34.8319 1.42596 35.324C1.91807 35.8162 2.5853 36.093 3.28125 36.0938H9.84375C10.5397 36.0928 11.2068 35.816 11.6989 35.3239C12.191 34.8318 12.4678 34.1647 12.4688 33.4688V31.5H18.1904L17.8623 32.8125H15.75C15.576 32.8125 15.409 32.8816 15.286 33.0047C15.1629 33.1278 15.0938 33.2947 15.0938 33.4688V35.4375C15.0938 35.6115 15.1629 35.7785 15.286 35.9015C15.409 36.0246 15.576 36.0938 15.75 36.0938H38.7188C39.4147 36.0928 40.0818 35.816 40.5739 35.3239C41.066 34.8318 41.3428 34.1647 41.3438 33.4688V16.4062C41.3428 15.7103 41.066 15.0432 40.5739 14.5511C40.0818 14.059 39.4147 13.7822 38.7188 13.7812ZM11.1562 33.4688C11.1558 33.8167 11.0174 34.1503 10.7713 34.3963C10.5253 34.6424 10.1917 34.7808 9.84375 34.7812H3.28125C2.93329 34.7808 2.59972 34.6424 2.35368 34.3963C2.10763 34.1503 1.96921 33.8167 1.96875 33.4688V22.9688C1.96921 22.6208 2.10763 22.2872 2.35368 22.0412C2.59972 21.7951 2.93329 21.6567 3.28125 21.6562H4.12043L4.62738 23.1763C4.67094 23.307 4.75452 23.4206 4.86626 23.5011C4.97801 23.5817 5.11226 23.625 5.25 23.625H7.875C8.01274 23.625 8.14699 23.5817 8.25874 23.5011C8.37048 23.4206 8.45406 23.307 8.49762 23.1763L9.00457 21.6562H9.84375C10.1917 21.6567 10.5253 21.7951 10.7713 22.0412C11.0174 22.2872 11.1558 22.6208 11.1562 22.9688V33.4688ZM5.5043 21.6562H7.6207L7.40168 22.3125H5.72332L5.5043 21.6562ZM12.4688 30.1875V28.2188H24.2812V30.1875H12.4688ZM24.2812 31.5V32.8125H24.1377L23.8096 31.5H24.2812ZM22.7842 32.8125H19.2158L19.5439 31.5H22.4561L22.7842 32.8125ZM16.4062 34.7812V34.125H24.3641C24.4242 34.355 24.5152 34.5758 24.6348 34.7812H16.4062ZM24.2812 16.4062V26.9062H12.4688V22.9688C12.4678 22.2728 12.191 21.6057 11.6989 21.1136C11.2068 20.6215 10.5397 20.3447 9.84375 20.3438H5.90625V8.53125C5.90671 8.18329 6.04513 7.84972 6.29118 7.60368C6.53722 7.35763 6.87079 7.21921 7.21875 7.21875H34.7812C35.1292 7.21921 35.4628 7.35763 35.7088 7.60368C35.9549 7.84972 36.0933 8.18329 36.0938 8.53125V13.7812H26.9062C26.2103 13.7822 25.5432 14.059 25.0511 14.5511C24.559 15.0432 24.2822 15.7103 24.2812 16.4062ZM40.0312 33.4688C40.0308 33.8167 39.8924 34.1503 39.6463 34.3963C39.4003 34.6424 39.0667 34.7808 38.7188 34.7812H26.9062C26.5583 34.7808 26.2247 34.6424 25.9787 34.3963C25.7326 34.1503 25.5942 33.8167 25.5938 33.4688V16.4062C25.5942 16.0583 25.7326 15.7247 25.9787 15.4787C26.2247 15.2326 26.5583 15.0942 26.9062 15.0938H38.7188C39.0667 15.0942 39.4003 15.2326 39.6463 15.4787C39.8924 15.7247 40.0308 16.0583 40.0312 16.4062V33.4688Z" fill="#2D3691"/>
<path d="M38.7188 15.75H26.9062C26.7322 15.75 26.5653 15.8191 26.4422 15.9422C26.3191 16.0653 26.25 16.2322 26.25 16.4062V31.5C26.25 31.674 26.3191 31.841 26.4422 31.964C26.5653 32.0871 26.7322 32.1562 26.9062 32.1562H38.7188C38.8928 32.1562 39.0597 32.0871 39.1828 31.964C39.3059 31.841 39.375 31.674 39.375 31.5V16.4062C39.375 16.2322 39.3059 16.0653 39.1828 15.9422C39.0597 15.8191 38.8928 15.75 38.7188 15.75ZM38.0625 30.8438H27.5625V17.0625H38.0625V30.8438Z" fill="#8DC640"/>
<path d="M32.1562 34.125C32.5187 34.125 32.8125 33.8312 32.8125 33.4688C32.8125 33.1063 32.5187 32.8125 32.1562 32.8125C31.7938 32.8125 31.5 33.1063 31.5 33.4688C31.5 33.8312 31.7938 34.125 32.1562 34.125Z" fill="#8DC640"/>
</svg>
